# xmcd CD database file
#
# Track frame offsets:
#	150
#	19303
#	41112
#	62090
#	77971
#	99032
#	120416
#	136355
#	152091
#	173921
#	181598
#	202354
#	221289
#	244160
#	263285
#	280020
#	296124
#	315386
#
# Disc length: 4533 seconds
#
# Revision: 5
# Processed by: cddbd v1.5.2PL0 Copyright (c) Steve Scherf et al.
# Submitted via: CDex 1.50
#
DISCID=f911b312
DTITLE=Verschiedene - Brigitte Edition - Soul For Dinner 2 (2005)
DYEAR=2005
DGENRE=Soul
TTITLE0=Schwarz auf Weiss - Max Mutzke
TTITLE1=Augenblick - Nadja Benaissa
TTITLE2=Wovon sollen wir leben? - Tele
TTITLE3=Tu doch etwas - Stefan Gwildis
TTITLE4=Mit dir - Freundeskreis feat. Joy Denalane
TTITLE5=Warum rufst du mich an? - Cassandra Stee
TTITLE6=Du erinnerst mich an Liebe - Ich und Ich
TTITLE7=Der Blender - Annett Louisan
TTITLE8=Vor and zurück - Fetsum
TTITLE9=Träumst du nicht? - Regy Clasen
TTITLE10=Wenn du schläfst - Söhne Mannheims
TTITLE11=Geimpft - Sedoussa
TTITLE12=Dein Herz ist ein einsamer Jäger - Die Strombolis
TTITLE13=Komm spiel mit mir - Manfred Krug
TTITLE14=Niemand - Ganz Schön Feist
TTITLE15=Was immer es ist - Glashaus
TTITLE16=Stählernes Labyrinth - J-Luv feat Xavier Naidoo
TTITLE17=Geh jetzt - Joy Denalane
EXTD=YEAR: 2005
EXTT0=
EXTT1=
EXTT2=
EXTT3=
EXTT4=
EXTT5=
EXTT6=
EXTT7=
EXTT8=
EXTT9=
EXTT10=
EXTT11=
EXTT12=
EXTT13=
EXTT14=
EXTT15=
EXTT16=
EXTT17=
PLAYORDER=
